<svg xmlns="http://www.w3.org/2000/svg" xmlns:xlink="http://www.w3.org/1999/xlink" width="18" height="18">
<path d="M9 0C13.9706 1e-05 18 4.02944 18 9C18 13.9706 13.9706 18 9 18C4.02944 18 1e-05 13.9706 0 9C1e-05 4.02944 4.02944 1e-05 9 0ZM9 1C4.58172 1.00001 1.00001 4.58172 1 9C1.00001 13.4183 4.58172 17 9 17C13.4183 17 17 13.4183 17 9C17 4.58172 13.4183 1.00001 9 1Z" fill-rule="evenodd" fill="#FFFFFF"></path>
<path d="M1.47485 0.817267L0.746598 0L0 0.665276L0.677834 1.42565Q0.715267 1.50537 0.715257 1.50536C0.832248 1.77072 0.887607 1.97889 0.887597 2.12091L0.886941 2.1759Q0.866884 2.80398 0.866874 2.80397C0.864068 3.52776 0.977049 3.88132 1.57481 3.88131C1.59384 3.88132 1.70466 3.9277 1.80566 4.00017L1.85587 4.03651C1.88269 4.05285 1.89616 4.04676 1.89615 3.97835C1.89616 4.44636 2.22776 4.56874 2.58783 4.54134L2.62522 4.53831L2.73085 4.52434L3.07278 4.45551Q3.32442 4.41144 3.32441 4.41143C3.35581 4.40415 3.36645 4.39568 3.34908 4.37958Q3.36602 4.39376 3.43118 4.44831L3.46159 4.47899C3.48277 4.50209 3.50131 4.52671 3.52487 4.5634L3.6807 4.82578L3.86341 5.12159L3.94217 5.25485L3.99603 5.3605L4.09855 5.603L4.24361 5.93745Q4.39997 6.27009 4.39996 6.27008C4.53263 6.53719 4.64658 6.71822 4.7739 6.86303C4.85954 6.96043 4.94676 7.03731 5.05761 7.11864L5.27983 7.27465Q5.30448 7.3888 5.30447 7.38879C5.38877 7.70376 5.59615 7.90527 6.02461 8.02895C6.29011 8.10559 6.48507 8.11913 6.83274 8.11305L6.9753 8.11132L7.05326 8.11292Q7.08821 8.11852 7.0882 8.11851C7.09507 8.12111 7.09837 8.12447 7.10168 8.12872L7.19665 8.23819C7.33328 8.38111 7.50945 8.51252 7.71946 8.6403C7.86747 8.73034 8.01365 8.80796 8.14339 8.87072L8.3766 8.9757L8.56397 9.05311L8.75783 8.97565L8.75866 9.57993L8.75403 9.67086L8.73795 9.82641L8.61235 10.8581L8.59804 11.0345Q8.59348 11.1759 8.59347 11.1758C8.59348 11.4621 8.65577 11.8175 8.77704 12.2523L9.74029 11.9837Q9.69505 11.8131 9.69504 11.8131C9.62668 11.5404 9.59348 11.3259 9.59347 11.1758C9.59348 11.162 9.59382 11.1467 9.59452 11.1296L9.61081 10.9252L9.74208 9.84697L9.75816 9.62478L9.75866 8.51359Q9.7529 8.39931 9.75289 8.3993C9.69954 7.89724 9.28382 7.82697 8.81557 7.9201L8.71049 7.9439L8.59183 7.97665Q8.46996 7.91566 8.46995 7.91565C8.39562 7.87698 8.31702 7.83332 8.23924 7.78599C8.07092 7.68358 7.94574 7.58482 7.88979 7.51318C7.6159 7.16251 7.35666 7.10373 6.81525 7.1132C6.81525 7.11321 6.67808 7.11421 6.67807 7.1142C6.51377 7.1131 6.41679 7.10133 6.30194 7.06818L6.25583 7.06365Q6.24362 6.99957 6.24361 6.99956C6.19115 6.78597 6.09459 6.62809 5.87748 6.47268L5.73045 6.3697Q5.59915 6.27386 5.59914 6.27385C5.56969 6.24974 5.54698 6.22784 5.52489 6.20272C5.50274 6.17752 5.47956 6.14708 5.45465 6.10979L5.37401 5.97578L5.27874 5.79108L5.22428 5.6767L5.09527 5.39156L4.95206 5.05101Q4.86563 4.86217 4.86562 4.86216C4.85252 4.83622 4.8387 4.80999 4.82383 4.78285L4.71936 4.6045L4.65262 4.49829Q4.36636 4.02313 4.36635 4.02312C4.31363 3.94102 4.26126 3.87145 4.19871 3.80323C4.12979 3.72805 4.05114 3.65763 3.95302 3.58211C3.69107 3.38052 3.40894 3.37709 2.97644 3.45575L2.71683 3.50665Q2.70055 3.48292 2.70054 3.48291C2.50803 3.23553 2.20025 3.02978 1.90113 2.93595L1.87183 2.92765L1.86756 2.77592L1.86864 2.67573L1.8876 2.12091Q1.88057 1.97129 1.88056 1.97128C1.85249 1.66577 1.7407 1.32229 1.5515 0.93186L1.47485 0.817267ZM3.34312 4.37459L3.34908 4.37958C3.34737 4.37799 3.34538 4.37633 3.34312 4.37459Z" fill-rule="evenodd" fill="#FFFFFF" transform="translate(1.504264864306379, 4.792550039785453)"></path>
<path d="M2.63323 1.78213L2.81525 1.78495Q2.69747 1.78761 2.69746 1.7876C2.14677 1.8125 1.59426 2.01675 1.52304 2.54021L1.51703 2.62702Q1.40803 2.82225 1.40802 2.82224C1.40557 2.82792 1.4042 2.83214 1.40347 2.83578L1.40338 2.85786Q1.38623 3.01708 1.38622 3.01707C1.37987 3.26151 1.51825 3.44981 1.73736 3.59635C1.87908 3.69114 1.97266 3.74155 2.08048 3.7817C2.08049 3.78171 2.25194 3.84603 2.25194 3.84603C2.29172 3.86334 2.33317 3.88415 2.40265 3.92026C2.49062 3.96599 2.5825 4.0021 2.68001 4.03122L2.78794 4.06109L2.97003 4.09702Q2.96311 4.17455 2.9631 4.17454C2.96037 4.27352 2.97964 4.37142 3.03493 4.4729C3.17983 4.73881 3.39964 4.8003 3.72566 4.80029L3.81878 4.80274L4.02287 4.82006Q4.1628 4.82732 4.16279 4.82731C4.21814 4.82661 4.2603 4.81912 4.32863 4.80347C4.51414 4.761 4.66312 4.6645 4.83995 4.4964C4.9815 4.36184 5.08227 4.21157 5.22015 3.96477C5.22016 3.96478 5.36689 3.70394 5.36688 3.70393C5.37396 3.6885 5.36875 3.68324 5.33777 3.6815L5.23748 3.68074Q5.34416 3.67596 5.34415 3.67595C5.57632 3.65327 5.69909 3.54744 5.87528 3.30634L5.93103 3.22602L5.98417 3.25968L6.1288 3.36493L6.25817 3.47551L6.33671 3.54726Q6.46091 3.65534 6.4609 3.65533C6.67251 3.82803 6.90459 3.96227 7.11802 4.03867L7.23103 4.07302L7.2051 4.111Q7.12774 4.20567 7.12773 4.20566C7.12694 4.20889 7.13203 4.21008 7.14956 4.21046L7.24595 4.21043Q7.15049 4.21638 7.15048 4.21637C7.00223 4.23627 6.90222 4.30651 6.75948 4.43289L6.72088 4.46774L6.44719 4.73962L6.33603 4.84602Q6.25675 4.8703 6.25674 4.87029C6.15864 4.90852 6.05902 4.97712 5.90879 5.08914L5.56704 5.34126L5.44717 5.42156L5.15609 5.5994L4.66679 5.91933Q4.49964 6.02059 4.49963 6.02058C4.4868 6.02896 4.48467 6.03266 4.49546 6.03265C3.95838 6.03266 3.59508 6.37783 3.59507 6.97444L3.59389 7.00005L3.58233 7.07008Q3.51879 7.33803 3.51878 7.33802C3.46003 7.61692 3.45917 7.83119 3.55299 8.05604L3.60203 8.15902L3.52221 8.15798L2.63323 8.15798L2.56841 8.15227Q2.4073 8.12454 2.40729 8.12453C2.07234 8.0778 1.85108 8.14693 1.6518 8.4891C1.61301 8.55571 1.5789 8.63089 1.54652 8.7182C1.43509 9.01867 1.44782 9.23111 1.53307 9.54248L1.5572 9.63433C1.56469 9.66681 1.56282 9.6735 1.55521 9.6914C1.55522 9.69141 1.48765 9.86029 1.48763 9.86029C1.25917 10.4721 1.24655 11.0088 1.56247 11.6838L2.46817 11.2599Q2.40789 11.1182 2.40788 11.1182C2.26931 10.753 2.30665 10.4796 2.47544 10.0828C2.58665 9.82129 2.5837 9.60441 2.51362 9.33772L2.47487 9.18775L2.46903 9.14702L2.58182 9.15707L3.40003 9.15702L3.71629 9.50481C3.92915 9.72483 4.09187 9.8265 4.35229 9.82649C4.69405 9.8265 4.96662 9.59225 4.96661 9.23636C4.96662 9.15621 4.95419 9.08733 4.9318 9.00355C4.93181 9.00355 4.88986 8.85906 4.88985 8.85905C4.86342 8.76747 4.8523 8.70833 4.85229 8.65798C4.8523 8.65798 4.84928 8.44715 4.84927 8.44714C4.84306 8.30569 4.82464 8.23492 4.77176 8.123C4.75954 8.09712 4.73451 8.0563 4.70455 8.01051L4.4958 7.7062C4.47966 7.67471 4.47712 7.64339 4.49057 7.57355C4.49058 7.57356 4.57115 7.22727 4.57114 7.22726C4.58244 7.16813 4.58931 7.11588 4.59264 7.06068L4.59303 7.02502Q4.62266 7.02324 4.62265 7.02323C4.78893 6.99814 4.94635 6.92297 5.14751 6.79876L5.68789 6.44628Q5.98876 6.26222 5.98875 6.26221C6.08769 6.19847 6.18245 6.1324 6.28539 6.05664C6.2854 6.05665 6.54712 5.85962 6.54711 5.85961C6.56656 5.8416 6.56365 5.83004 6.49559 5.83003C6.69858 5.83004 6.81268 5.7583 6.98093 5.61143L7.09205 5.50843L7.28691 5.31264L7.41803 5.18502Q7.46833 5.17263 7.46832 5.17262C7.75182 5.07341 7.9872 4.78548 8.22048 4.38629C8.59482 3.74575 8.02777 3.10954 7.47359 3.10953C7.46606 3.10954 7.4459 3.10235 7.41687 3.08877L7.3069 3.02957C7.22081 2.97831 7.11418 2.90449 7.0169 2.81422C6.8431 2.65295 6.71875 2.55066 6.58607 2.4594L6.50336 2.40447Q6.12371 2.17487 6.1237 2.17486C5.6966 1.95744 5.45182 2.16468 5.13731 2.61821L5.08103 2.69602Q5.02768 2.70799 5.02767 2.70798C4.80619 2.77114 4.65817 2.94277 4.49874 3.20846L4.34715 3.47705L4.25229 3.63812L4.18046 3.73965L4.09703 3.82302L4.02003 3.81502Q4.01662 3.73174 4.01661 3.73173C3.97569 3.32976 3.71106 3.20651 3.2534 3.13041L3.1701 3.11646L2.99757 3.08207L2.91074 3.0541L2.76406 2.98208L2.60904 2.91128L2.48903 2.86502Q2.50301 2.84149 2.503 2.84148C2.60587 2.80771 2.75099 2.78496 2.81525 2.78495C2.81526 2.78496 2.93613 2.77374 2.93613 2.77373C3.27028 2.71506 3.68723 2.43622 3.9078 2.16902C3.90781 2.16903 4.03516 2.01041 4.03515 2.0104C4.11449 1.89924 4.16565 1.78793 4.17589 1.6447C4.19661 1.3548 4.04485 1.15444 3.79513 0.991762C3.7418 0.957024 3.68742 0.926822 3.63158 0.900979C3.38521 0.786971 3.22539 0.772771 2.80306 0.780238L1.76403 0.782021Q1.73954 0.723847 1.73953 0.723837C1.64495 0.536619 1.47457 0.41588 1.18034 0.41587Q1.18035 0.41588 1.07796 0.335063L0.955867 0.232848L0.797057 0.0883535L0.706356 0L0 0.707857Q0.152206 0.85539 0.152196 0.85538C0.399273 1.08713 0.61481 1.24813 0.819414 1.3363L0.890031 1.36202Q0.896169 1.37887 0.896159 1.37886C0.997423 1.62061 1.20853 1.78214 1.54983 1.78213L2.63323 1.78213Z" fill-rule="evenodd" fill="#FFFFFF" transform="translate(5.967067965724254, 0.9911772384235178)"></path>
<path d="M1.94582 0.285334C1.64051 0.059098 1.28363 1e-05 0.749404 0Q0.749414 1e-05 0 0L0 1L0.749404 1Q0.877045 1.00174 0.877035 1.00173C1.1562 1.00985 1.30738 1.04663 1.3826 1.11555C1.44249 1.17042 1.50685 1.22253 1.57507 1.27226C1.76782 1.41277 1.95573 1.51277 2.0919 1.57184L2.27277 1.70473Q2.40968 1.8196 2.40967 1.81959C2.50135 1.90202 2.57593 1.98388 2.62735 2.05967C2.62736 2.05968 2.76284 2.24189 2.76284 2.24189C2.95285 2.47541 3.18016 2.67097 3.44279 2.82673L3.9529 1.96662Q3.80842 1.87018 3.80841 1.87017C3.67076 1.767 3.55345 1.64353 3.45486 1.49821L3.34491 1.35174C3.26612 1.25611 3.17666 1.16443 3.07826 1.07596C2.87838 0.896244 2.68189 0.761635 2.54112 0.680263C2.4154 0.622139 2.28734 0.553985 2.16413 0.46417C2.12479 0.435494 2.08917 0.406654 2.05814 0.378217L1.94582 0.285334Z" fill-rule="evenodd" fill="#FFFFFF" transform="translate(10.76292789467902, 12.7040211448373)"></path>
</svg>