<svg xmlns="http://www.w3.org/2000/svg" xmlns:xlink="http://www.w3.org/1999/xlink"
    version="1.1" width="29" height="18.721710205078125" viewBox="0 0 29 18.721710205078125">
    <g fill-rule="evenodd" fill="#ffffff">
        <g>
            <path
                d="M1.5,0L27.5,0Q27.5737,0,27.647,0.007220000000000004Q27.7204,0.014450000000000074,27.7926,0.028820000000000068Q27.8649,0.043199999999999905,27.9354,0.06458999999999993Q28.0059,0.08597999999999995,28.074,0.11417999999999995Q28.1421,0.14237999999999995,28.2071,0.17711999999999994Q28.2721,0.21185999999999994,28.3334,0.2527999999999999Q28.3946,0.2937399999999999,28.4516,0.3404799999999999Q28.5086,0.38722999999999996,28.5607,0.43934000000000006Q28.6128,0.49144999999999994,28.6595,0.54841Q28.7063,0.605373,28.7472,0.666645Q28.7881,0.727916,28.8229,0.792905Q28.8576,0.857894,28.8858,0.925975Q28.914,0.994056,28.9354,1.064573Q28.9568,1.13509,28.9712,1.207365Q28.9856,1.279639,28.9928,1.3529740000000001Q29,1.4263097,29,1.5Q29,1.5736903,28.9928,1.6470259999999999Q28.9856,1.720361,28.9712,1.792635Q28.9568,1.86491,28.9354,1.935427Q28.914,2.005944,28.8858,2.074025Q28.8576,2.142106,28.8229,2.207095Q28.7881,2.272084,28.7472,2.333355Q28.7063,2.394627,28.6595,2.45159Q28.6128,2.50855,28.5607,2.56066Q28.5086,2.6127700000000003,28.4516,2.65952Q28.3946,2.7062600000000003,28.3334,2.7472000000000003Q28.2721,2.7881400000000003,28.2071,2.82288Q28.1421,2.85762,28.074,2.88582Q28.0059,2.91402,27.9354,2.93541Q27.8649,2.9568000000000003,27.7926,2.97118Q27.7204,2.98555,27.647,2.9927799999999998Q27.5737,3,27.5,3L1.5,3Q1.4263097,3,1.3529740000000001,2.9927799999999998Q1.279639,2.98555,1.207365,2.97118Q1.13509,2.9568000000000003,1.064573,2.93541Q0.994056,2.91402,0.925975,2.88582Q0.857894,2.85762,0.792905,2.82288Q0.727916,2.7881400000000003,0.666645,2.7472000000000003Q0.605373,2.7062600000000003,0.54841,2.65952Q0.49144999999999994,2.6127700000000003,0.43934000000000006,2.56066Q0.38722999999999996,2.50855,0.3404799999999999,2.45159Q0.2937399999999999,2.394627,0.2527999999999999,2.333355Q0.21185999999999994,2.272084,0.17711999999999994,2.207095Q0.14237999999999995,2.142106,0.11417999999999995,2.074025Q0.08597999999999995,2.005944,0.06458999999999993,1.935427Q0.043199999999999905,1.86491,0.028820000000000068,1.792635Q0.014450000000000074,1.720361,0.007220000000000004,1.6470259999999999Q0,1.5736903,0,1.5Q0,1.4263097,0.007220000000000004,1.3529740000000001Q0.014450000000000074,1.279639,0.028820000000000068,1.207365Q0.043199999999999905,1.13509,0.06458999999999993,1.064573Q0.08597999999999995,0.994056,0.11417999999999995,0.925975Q0.14237999999999995,0.857894,0.17711999999999994,0.792905Q0.21185999999999994,0.727916,0.2527999999999999,0.666645Q0.2937399999999999,0.605373,0.3404799999999999,0.54841Q0.38722999999999996,0.49144999999999994,0.43934000000000006,0.43934000000000006Q0.49144999999999994,0.38722999999999996,0.54841,0.3404799999999999Q0.605373,0.2937399999999999,0.666645,0.2527999999999999Q0.727916,0.21185999999999994,0.792905,0.17711999999999994Q0.857894,0.14237999999999995,0.925975,0.11417999999999995Q0.994056,0.08597999999999995,1.064573,0.06458999999999993Q1.13509,0.043199999999999905,1.207365,0.028820000000000068Q1.279639,0.014450000000000074,1.3529740000000001,0.007220000000000004Q1.4263097,0,1.5,0Z"
            />
        </g>
        <g>
            <path
                d="M1.5,7.8608551025390625L27.5,7.8608551025390625Q27.5737,7.8608551025390625,27.647,7.868075102539063Q27.7204,7.875305102539063,27.7926,7.889675102539062Q27.8649,7.904055102539062,27.9354,7.925445102539062Q28.0059,7.946835102539063,28.074,7.975035102539063Q28.1421,8.003235102539062,28.2071,8.037975102539063Q28.2721,8.072715102539062,28.3334,8.113655102539063Q28.3946,8.154595102539062,28.4516,8.201335102539062Q28.5086,8.248085102539063,28.5607,8.300195102539062Q28.6128,8.352305102539063,28.6595,8.409265102539063Q28.7063,8.466228102539063,28.7472,8.527500102539063Q28.7881,8.588771102539063,28.8229,8.653760102539062Q28.8576,8.718749102539062,28.8858,8.786830102539062Q28.914,8.854911102539063,28.9354,8.925428102539062Q28.9568,8.995945102539062,28.9712,9.068220102539062Q28.9856,9.140494102539062,28.9928,9.213829102539062Q29,9.287164802539062,29,9.360855102539062Q29,9.434545402539063,28.9928,9.507881102539063Q28.9856,9.581216102539063,28.9712,9.653490102539063Q28.9568,9.725765102539063,28.9354,9.796282102539063Q28.914,9.866799102539062,28.8858,9.934880102539063Q28.8576,10.002961102539063,28.8229,10.067950102539063Q28.7881,10.132939102539062,28.7472,10.194210102539062Q28.7063,10.255482102539062,28.6595,10.312445102539062Q28.6128,10.369405102539062,28.5607,10.421515102539063Q28.5086,10.473625102539062,28.4516,10.520375102539063Q28.3946,10.567115102539063,28.3334,10.608055102539062Q28.2721,10.648995102539063,28.2071,10.683735102539062Q28.1421,10.718475102539063,28.074,10.746675102539063Q28.0059,10.774875102539063,27.9354,10.796265102539063Q27.8649,10.817655102539062,27.7926,10.832035102539063Q27.7204,10.846405102539062,27.647,10.853635102539062Q27.5737,10.860855102539062,27.5,10.860855102539062L1.5,10.860855102539062Q1.4263097,10.860855102539062,1.3529740000000001,10.853635102539062Q1.279639,10.846405102539062,1.207365,10.832035102539063Q1.13509,10.817655102539062,1.064573,10.796265102539063Q0.994056,10.774875102539063,0.925975,10.746675102539063Q0.857894,10.718475102539063,0.792905,10.683735102539062Q0.727916,10.648995102539063,0.666645,10.608055102539062Q0.605373,10.567115102539063,0.54841,10.520375102539063Q0.49144999999999994,10.473625102539062,0.43934000000000006,10.421515102539063Q0.38722999999999996,10.369405102539062,0.3404799999999999,10.312445102539062Q0.2937399999999999,10.255482102539062,0.2527999999999999,10.194210102539062Q0.21185999999999994,10.132939102539062,0.17711999999999994,10.067950102539063Q0.14237999999999995,10.002961102539063,0.11417999999999995,9.934880102539063Q0.08597999999999995,9.866799102539062,0.06458999999999993,9.796282102539063Q0.043199999999999905,9.725765102539063,0.028820000000000068,9.653490102539063Q0.014450000000000074,9.581216102539063,0.007220000000000004,9.507881102539063Q0,9.434545402539063,0,9.360855102539062Q0,9.287164802539062,0.007220000000000004,9.213829102539062Q0.014450000000000074,9.140494102539062,0.028820000000000068,9.068220102539062Q0.043199999999999905,8.995945102539062,0.06458999999999993,8.925428102539062Q0.08597999999999995,8.854911102539063,0.11417999999999995,8.786830102539062Q0.14237999999999995,8.718749102539062,0.17711999999999994,8.653760102539062Q0.21185999999999994,8.588771102539063,0.2527999999999999,8.527500102539063Q0.2937399999999999,8.466228102539063,0.3404799999999999,8.409265102539063Q0.38722999999999996,8.352305102539063,0.43934000000000006,8.300195102539062Q0.49144999999999994,8.248085102539063,0.54841,8.201335102539062Q0.605373,8.154595102539062,0.666645,8.113655102539063Q0.727916,8.072715102539062,0.792905,8.037975102539063Q0.857894,8.003235102539062,0.925975,7.975035102539063Q0.994056,7.946835102539063,1.064573,7.925445102539062Q1.13509,7.904055102539062,1.207365,7.889675102539062Q1.279639,7.875305102539063,1.3529740000000001,7.868075102539063Q1.4263097,7.8608551025390625,1.5,7.8608551025390625Z"
            />
        </g>
        <g>
            <path
                d="M1.5,15.721710205078125L27.5,15.721710205078125Q27.5737,15.721710205078125,27.647,15.728930205078125Q27.7204,15.736160205078125,27.7926,15.750530205078125Q27.8649,15.764910205078126,27.9354,15.786300205078124Q28.0059,15.807690205078124,28.074,15.835890205078124Q28.1421,15.864090205078124,28.2071,15.898830205078125Q28.2721,15.933570205078125,28.3334,15.974510205078126Q28.3946,16.015450205078125,28.4516,16.062190205078124Q28.5086,16.108940205078124,28.5607,16.161050205078126Q28.6128,16.213160205078125,28.6595,16.270120205078126Q28.7063,16.327083205078125,28.7472,16.388355205078124Q28.7881,16.449626205078125,28.8229,16.514615205078126Q28.8576,16.579604205078127,28.8858,16.647685205078126Q28.914,16.715766205078125,28.9354,16.786283205078124Q28.9568,16.856800205078127,28.9712,16.929075205078124Q28.9856,17.001349205078125,28.9928,17.074684205078125Q29,17.148019905078126,29,17.221710205078125Q29,17.295400505078124,28.9928,17.368736205078125Q28.9856,17.442071205078125,28.9712,17.514345205078126Q28.9568,17.586620205078123,28.9354,17.657137205078126Q28.914,17.727654205078125,28.8858,17.795735205078124Q28.8576,17.863816205078123,28.8229,17.928805205078124Q28.7881,17.993794205078125,28.7472,18.055065205078126Q28.7063,18.116337205078125,28.6595,18.173300205078124Q28.6128,18.230260205078125,28.5607,18.282370205078124Q28.5086,18.334480205078126,28.4516,18.381230205078126Q28.3946,18.427970205078125,28.3334,18.468910205078124Q28.2721,18.509850205078124,28.2071,18.544590205078126Q28.1421,18.579330205078126,28.074,18.607530205078124Q28.0059,18.635730205078126,27.9354,18.657120205078126Q27.8649,18.678510205078126,27.7926,18.692890205078125Q27.7204,18.707260205078125,27.647,18.714490205078125Q27.5737,18.721710205078125,27.5,18.721710205078125L1.5,18.721710205078125Q1.4263097,18.721710205078125,1.3529740000000001,18.714490205078125Q1.279639,18.707260205078125,1.207365,18.692890205078125Q1.13509,18.678510205078126,1.064573,18.657120205078126Q0.994056,18.635730205078126,0.925975,18.607530205078124Q0.857894,18.579330205078126,0.792905,18.544590205078126Q0.727916,18.509850205078124,0.666645,18.468910205078124Q0.605373,18.427970205078125,0.54841,18.381230205078126Q0.49144999999999994,18.334480205078126,0.43934000000000006,18.282370205078124Q0.38722999999999996,18.230260205078125,0.3404799999999999,18.173300205078124Q0.2937399999999999,18.116337205078125,0.2527999999999999,18.055065205078126Q0.21185999999999994,17.993794205078125,0.17711999999999994,17.928805205078124Q0.14237999999999995,17.863816205078123,0.11417999999999995,17.795735205078124Q0.08597999999999995,17.727654205078125,0.06458999999999993,17.657137205078126Q0.043199999999999905,17.586620205078123,0.028820000000000068,17.514345205078126Q0.014450000000000074,17.442071205078125,0.007220000000000004,17.368736205078125Q0,17.295400505078124,0,17.221710205078125Q0,17.148019905078126,0.007220000000000004,17.074684205078125Q0.014450000000000074,17.001349205078125,0.028820000000000068,16.929075205078124Q0.043199999999999905,16.856800205078127,0.06458999999999993,16.786283205078124Q0.08597999999999995,16.715766205078125,0.11417999999999995,16.647685205078126Q0.14237999999999995,16.579604205078127,0.17711999999999994,16.514615205078126Q0.21185999999999994,16.449626205078125,0.2527999999999999,16.388355205078124Q0.2937399999999999,16.327083205078125,0.3404799999999999,16.270120205078126Q0.38722999999999996,16.213160205078125,0.43934000000000006,16.161050205078126Q0.49144999999999994,16.108940205078124,0.54841,16.062190205078124Q0.605373,16.015450205078125,0.666645,15.974510205078126Q0.727916,15.933570205078125,0.792905,15.898830205078125Q0.857894,15.864090205078124,0.925975,15.835890205078124Q0.994056,15.807690205078124,1.064573,15.786300205078124Q1.13509,15.764910205078126,1.207365,15.750530205078125Q1.279639,15.736160205078125,1.3529740000000001,15.728930205078125Q1.4263097,15.721710205078125,1.5,15.721710205078125Z"
            />
        </g>
    </g>
</svg>