<svg xmlns="http://www.w3.org/2000/svg" xmlns:xlink="http://www.w3.org/1999/xlink" width="36" height="36.00000000000003">
<path d="M0 3L0 33Q0 33.1474 0.0144458 33.2941Q0.0288916 33.4407 0.0576442 33.5853Q0.0863967 33.7298 0.129179 33.8709Q0.171961 34.0119 0.228361 34.148Q0.284761 34.2842 0.354236 34.4142Q0.423711 34.5442 0.505591 34.6667Q0.587471 34.7892 0.680969 34.9032Q0.774466 35.0171 0.87868 35.1213Q0.982893 35.2255 1.09682 35.319Q1.21075 35.4125 1.33329 35.4944Q1.45583 35.5763 1.58581 35.6458Q1.71579 35.7152 1.85195 35.7716Q1.98811 35.828 2.12915 35.8708Q2.27018 35.9136 2.41473 35.9424Q2.55928 35.9711 2.70595 35.9856Q2.85262 36 3 36L33 36Q33.1474 36 33.2941 35.9856Q33.4407 35.9711 33.5853 35.9424Q33.7298 35.9136 33.8709 35.8708Q34.0119 35.828 34.148 35.7716Q34.2842 35.7152 34.4142 35.6458Q34.5442 35.5763 34.6667 35.4944Q34.7892 35.4125 34.9032 35.319Q35.0171 35.2255 35.1213 35.1213Q35.2255 35.0171 35.319 34.9032Q35.4125 34.7892 35.4944 34.6667Q35.5763 34.5442 35.6458 34.4142Q35.7152 34.2842 35.7716 34.148Q35.828 34.0119 35.8708 33.8709Q35.9136 33.7298 35.9424 33.5853Q35.9711 33.4407 35.9856 33.2941Q36 33.1474 36 33L36 3Q36 2.85262 35.9856 2.70595Q35.9711 2.55928 35.9424 2.41473Q35.9136 2.27018 35.8708 2.12915Q35.828 1.98811 35.7716 1.85195Q35.7152 1.71579 35.6458 1.58581Q35.5763 1.45583 35.4944 1.33329Q35.4125 1.21075 35.319 1.09682Q35.2255 0.982893 35.1213 0.87868Q35.0171 0.774466 34.9032 0.680969Q34.7892 0.587471 34.6667 0.505591Q34.5442 0.423711 34.4142 0.354236Q34.2842 0.284761 34.148 0.228361Q34.0119 0.171961 33.8709 0.129179Q33.7298 0.0863967 33.5853 0.0576442Q33.4407 0.0288916 33.2941 0.0144458Q33.1474 0 33 0L3 0Q2.85262 0 2.70595 0.0144458Q2.55928 0.0288916 2.41473 0.0576442Q2.27018 0.0863967 2.12915 0.129179Q1.98811 0.171961 1.85195 0.228361Q1.71579 0.284761 1.58581 0.354236Q1.45583 0.423711 1.33329 0.505591Q1.21075 0.587471 1.09682 0.680969Q0.982893 0.774466 0.87868 0.87868Q0.774466 0.982893 0.680969 1.09682Q0.587471 1.21075 0.505591 1.33329Q0.423711 1.45583 0.354236 1.58581Q0.284761 1.71579 0.228361 1.85195Q0.171961 1.98811 0.129179 2.12915Q0.0863967 2.27018 0.0576442 2.41473Q0.0288916 2.55928 0.0144458 2.70595Q0 2.85262 0 3ZM33 33L3 33L3 3L33 3L33 33Z" fill-rule="evenodd" fill="#ffffff"></path>
<path d="M0 -1.5L17.7734 -1.5Q17.8471 -1.5 17.9204 -1.49278Q17.9938 -1.48555 18.066 -1.47118Q18.1383 -1.4568 18.2088 -1.43541Q18.2793 -1.41402 18.3474 -1.38582Q18.4155 -1.35762 18.4805 -1.32288Q18.5455 -1.28814 18.6067 -1.2472Q18.668 -1.20626 18.725 -1.15952Q18.7819 -1.11277 18.8341 -1.06066Q18.8862 -1.00855 18.9329 -0.95159Q18.9797 -0.894627 19.0206 -0.833355Q19.0615 -0.772084 19.0963 -0.707095Q19.131 -0.642106 19.1592 -0.574025Q19.1874 -0.505944 19.2088 -0.435427Q19.2302 -0.36491 19.2446 -0.292635Q19.2589 -0.220361 19.2662 -0.147026Q19.2734 -0.0736903 19.2734 0Q19.2734 0.0736903 19.2662 0.147026Q19.2589 0.220361 19.2446 0.292635Q19.2302 0.36491 19.2088 0.435427Q19.1874 0.505944 19.1592 0.574025Q19.131 0.642106 19.0963 0.707095Q19.0615 0.772084 19.0206 0.833355Q18.9797 0.894627 18.9329 0.95159Q18.8862 1.00855 18.8341 1.06066Q18.7819 1.11277 18.725 1.15952Q18.668 1.20626 18.6067 1.2472Q18.5455 1.28814 18.4805 1.32288Q18.4155 1.35762 18.3474 1.38582Q18.2793 1.41402 18.2088 1.43541Q18.1383 1.4568 18.066 1.47118Q17.9938 1.48555 17.9204 1.49278Q17.8471 1.5 17.7734 1.5L0 1.5Q-0.0736903 1.5 -0.147026 1.49278Q-0.220361 1.48555 -0.292635 1.47118Q-0.36491 1.4568 -0.435427 1.43541Q-0.505944 1.41402 -0.574025 1.38582Q-0.642106 1.35762 -0.707095 1.32288Q-0.772084 1.28814 -0.833355 1.2472Q-0.894627 1.20626 -0.95159 1.15952Q-1.00855 1.11277 -1.06066 1.06066Q-1.11277 1.00855 -1.15952 0.95159Q-1.20626 0.894627 -1.2472 0.833355Q-1.28814 0.772084 -1.32288 0.707095Q-1.35762 0.642106 -1.38582 0.574025Q-1.41402 0.505944 -1.43541 0.435427Q-1.4568 0.36491 -1.47118 0.292635Q-1.48555 0.220361 -1.49278 0.147026Q-1.5 0.0736903 -1.5 0Q-1.5 -0.0736903 -1.49278 -0.147026Q-1.48555 -0.220361 -1.47118 -0.292635Q-1.4568 -0.36491 -1.43541 -0.435427Q-1.41402 -0.505944 -1.38582 -0.574025Q-1.35762 -0.642106 -1.32288 -0.707095Q-1.28814 -0.772084 -1.2472 -0.833355Q-1.20626 -0.894627 -1.15952 -0.95159Q-1.11277 -1.00855 -1.06066 -1.06066Q-1.00855 -1.11277 -0.95159 -1.15952Q-0.894627 -1.20626 -0.833355 -1.2472Q-0.772084 -1.28814 -0.707095 -1.32288Q-0.642106 -1.35762 -0.574025 -1.38582Q-0.505944 -1.41402 -0.435427 -1.43541Q-0.36491 -1.4568 -0.292635 -1.47118Q-0.220361 -1.48555 -0.147026 -1.49278Q-0.0736903 -1.5 0 -1.5Z" fill="#ffffff" transform="translate(8.998947143554688, 9.679808986838452)"></path>
<path d="M0 -1.5L17.7734 -1.5Q17.8471 -1.5 17.9204 -1.49278Q17.9938 -1.48555 18.066 -1.47118Q18.1383 -1.4568 18.2088 -1.43541Q18.2793 -1.41402 18.3474 -1.38582Q18.4155 -1.35762 18.4805 -1.32288Q18.5455 -1.28814 18.6067 -1.2472Q18.668 -1.20626 18.725 -1.15952Q18.7819 -1.11277 18.8341 -1.06066Q18.8862 -1.00855 18.9329 -0.95159Q18.9797 -0.894627 19.0206 -0.833355Q19.0615 -0.772084 19.0963 -0.707095Q19.131 -0.642106 19.1592 -0.574025Q19.1874 -0.505944 19.2088 -0.435427Q19.2302 -0.36491 19.2446 -0.292635Q19.2589 -0.220361 19.2662 -0.147026Q19.2734 -0.0736903 19.2734 0Q19.2734 0.0736903 19.2662 0.147026Q19.2589 0.220361 19.2446 0.292635Q19.2302 0.36491 19.2088 0.435427Q19.1874 0.505944 19.1592 0.574025Q19.131 0.642106 19.0963 0.707095Q19.0615 0.772084 19.0206 0.833355Q18.9797 0.894627 18.9329 0.95159Q18.8862 1.00855 18.8341 1.06066Q18.7819 1.11277 18.725 1.15952Q18.668 1.20626 18.6067 1.2472Q18.5455 1.28814 18.4805 1.32288Q18.4155 1.35762 18.3474 1.38582Q18.2793 1.41402 18.2088 1.43541Q18.1383 1.4568 18.066 1.47118Q17.9938 1.48555 17.9204 1.49278Q17.8471 1.5 17.7734 1.5L0 1.5Q-0.0736903 1.5 -0.147026 1.49278Q-0.220361 1.48555 -0.292635 1.47118Q-0.36491 1.4568 -0.435427 1.43541Q-0.505944 1.41402 -0.574025 1.38582Q-0.642106 1.35762 -0.707095 1.32288Q-0.772084 1.28814 -0.833355 1.2472Q-0.894627 1.20626 -0.95159 1.15952Q-1.00855 1.11277 -1.06066 1.06066Q-1.11277 1.00855 -1.15952 0.95159Q-1.20626 0.894627 -1.2472 0.833355Q-1.28814 0.772084 -1.32288 0.707095Q-1.35762 0.642106 -1.38582 0.574025Q-1.41402 0.505944 -1.43541 0.435427Q-1.4568 0.36491 -1.47118 0.292635Q-1.48555 0.220361 -1.49278 0.147026Q-1.5 0.0736903 -1.5 0Q-1.5 -0.0736903 -1.49278 -0.147026Q-1.48555 -0.220361 -1.47118 -0.292635Q-1.4568 -0.36491 -1.43541 -0.435427Q-1.41402 -0.505944 -1.38582 -0.574025Q-1.35762 -0.642106 -1.32288 -0.707095Q-1.28814 -0.772084 -1.2472 -0.833355Q-1.20626 -0.894627 -1.15952 -0.95159Q-1.11277 -1.00855 -1.06066 -1.06066Q-1.00855 -1.11277 -0.95159 -1.15952Q-0.894627 -1.20626 -0.833355 -1.2472Q-0.772084 -1.28814 -0.707095 -1.32288Q-0.642106 -1.35762 -0.574025 -1.38582Q-0.505944 -1.41402 -0.435427 -1.43541Q-0.36491 -1.4568 -0.292635 -1.47118Q-0.220361 -1.48555 -0.147026 -1.49278Q-0.0736903 -1.5 0 -1.5Z" fill="#ffffff" transform="translate(8.998947143554688, 18)"></path><path d="M0 -1.5L17.7734 -1.5Q17.8471 -1.5 17.9204 -1.49278Q17.9938 -1.48555 18.066 -1.47118Q18.1383 -1.4568 18.2088 -1.43541Q18.2793 -1.41402 18.3474 -1.38582Q18.4155 -1.35762 18.4805 -1.32288Q18.5455 -1.28814 18.6067 -1.2472Q18.668 -1.20626 18.725 -1.15952Q18.7819 -1.11277 18.8341 -1.06066Q18.8862 -1.00855 18.9329 -0.95159Q18.9797 -0.894627 19.0206 -0.833355Q19.0615 -0.772084 19.0963 -0.707095Q19.131 -0.642106 19.1592 -0.574025Q19.1874 -0.505944 19.2088 -0.435427Q19.2302 -0.36491 19.2446 -0.292635Q19.2589 -0.220361 19.2662 -0.147026Q19.2734 -0.0736903 19.2734 0Q19.2734 0.0736903 19.2662 0.147026Q19.2589 0.220361 19.2446 0.292635Q19.2302 0.36491 19.2088 0.435427Q19.1874 0.505944 19.1592 0.574025Q19.131 0.642106 19.0963 0.707095Q19.0615 0.772084 19.0206 0.833355Q18.9797 0.894627 18.9329 0.95159Q18.8862 1.00855 18.8341 1.06066Q18.7819 1.11277 18.725 1.15952Q18.668 1.20626 18.6067 1.2472Q18.5455 1.28814 18.4805 1.32288Q18.4155 1.35762 18.3474 1.38582Q18.2793 1.41402 18.2088 1.43541Q18.1383 1.4568 18.066 1.47118Q17.9938 1.48555 17.9204 1.49278Q17.8471 1.5 17.7734 1.5L0 1.5Q-0.0736903 1.5 -0.147026 1.49278Q-0.220361 1.48555 -0.292635 1.47118Q-0.36491 1.4568 -0.435427 1.43541Q-0.505944 1.41402 -0.574025 1.38582Q-0.642106 1.35762 -0.707095 1.32288Q-0.772084 1.28814 -0.833355 1.2472Q-0.894627 1.20626 -0.95159 1.15952Q-1.00855 1.11277 -1.06066 1.06066Q-1.11277 1.00855 -1.15952 0.95159Q-1.20626 0.894627 -1.2472 0.833355Q-1.28814 0.772084 -1.32288 0.707095Q-1.35762 0.642106 -1.38582 0.574025Q-1.41402 0.505944 -1.43541 0.435427Q-1.4568 0.36491 -1.47118 0.292635Q-1.48555 0.220361 -1.49278 0.147026Q-1.5 0.0736903 -1.5 0Q-1.5 -0.0736903 -1.49278 -0.147026Q-1.48555 -0.220361 -1.47118 -0.292635Q-1.4568 -0.36491 -1.43541 -0.435427Q-1.41402 -0.505944 -1.38582 -0.574025Q-1.35762 -0.642106 -1.32288 -0.707095Q-1.28814 -0.772084 -1.2472 -0.833355Q-1.20626 -0.894627 -1.15952 -0.95159Q-1.11277 -1.00855 -1.06066 -1.06066Q-1.00855 -1.11277 -0.95159 -1.15952Q-0.894627 -1.20626 -0.833355 -1.2472Q-0.772084 -1.28814 -0.707095 -1.32288Q-0.642106 -1.35762 -0.574025 -1.38582Q-0.505944 -1.41402 -0.435427 -1.43541Q-0.36491 -1.4568 -0.292635 -1.47118Q-0.220361 -1.48555 -0.147026 -1.49278Q-0.0736903 -1.5 0 -1.5Z" fill="#ffffff" transform="translate(8.998947143554688, 26.32019101316155)"></path></svg>